HIERARCHY
ROOT Hips
{
	OFFSET 0.000000 71.427986 0.000000
	CHANNELS 6 Xposition Yposition Zposition Xrotation Yrotation Zrotation
	JOINT Pelvis
	{
		OFFSET 0.000000 0.000000 0.000000
		CHANNELS 3 Xrotation Yrotation Zrotation
		JOINT LeftUpLeg
		{
			OFFSET 6.797100 -2.508499 -1.318700
			CHANNELS 3 Xrotation Yrotation Zrotation
			JOINT LeftLeg
			{
				OFFSET 0.069008 -29.241863 0.690200
				CHANNELS 3 Xrotation Yrotation Zrotation
				JOINT LeftFoot
				{
					OFFSET -0.069008 -29.568123 -0.266800
					CHANNELS 3 Xrotation Yrotation Zrotation
					JOINT LeftToeBase
					{
						OFFSET 3.145500 -8.631000 16.059900
						CHANNELS 3 Xrotation Yrotation Zrotation
						End Site
						{
							OFFSET 0.000000 18.501587 0.000000
						}
					}
				}
			}
			JOINT Left_ShortSleeve
			{
				OFFSET 0.265923 -10.480953 1.153800
				CHANNELS 3 Xrotation Yrotation Zrotation
				End Site
				{
					OFFSET 1.725763 19.823879 0.000000
				}
			}
		}
		JOINT RightUpLeg
		{
			OFFSET -6.797100 -2.508499 -1.318700
			CHANNELS 3 Xrotation Yrotation Zrotation
			JOINT RightLeg
			{
				OFFSET -0.082453 -29.241932 0.688000
				CHANNELS 3 Xrotation Yrotation Zrotation
				JOINT RightFoot
				{
					OFFSET 0.082453 -29.568058 -0.264600
					CHANNELS 3 Xrotation Yrotation Zrotation
					JOINT RightToeBase
					{
						OFFSET -3.115300 -8.682800 16.113400
						CHANNELS 3 Xrotation Yrotation Zrotation
						End Site
						{
							OFFSET 0.000000 18.567114 0.000000
						}
					}
				}
			}
			JOINT Right_ShortSleeve
			{
				OFFSET -0.265923 -10.480953 1.153800
				CHANNELS 3 Xrotation Yrotation Zrotation
				End Site
				{
					OFFSET -1.725766 19.823910 0.000000
				}
			}
		}
	}
	JOINT Spine
	{
		OFFSET 0.000000 13.368103 0.470500
		CHANNELS 3 Xrotation Yrotation Zrotation
		JOINT Spine1
		{
			OFFSET 0.147000 13.837402 0.538800
			CHANNELS 3 Xrotation Yrotation Zrotation
			JOINT Spine2
			{
				OFFSET 0.168000 16.242897 -1.435500
				CHANNELS 3 Xrotation Yrotation Zrotation
				JOINT Neck
				{
					OFFSET 0.217200 18.631500 -1.679100
					CHANNELS 3 Xrotation Yrotation Zrotation
					JOINT Head
					{
						OFFSET 0.000000 6.599396 1.385900
						CHANNELS 3 Xrotation Yrotation Zrotation
						JOINT Hat
						{
							OFFSET -0.532200 27.220596 -10.096100
							CHANNELS 3 Xrotation Yrotation Zrotation
							End Site
							{
								OFFSET 0.000000 22.029861 0.000000
							}
						}
						JOINT HairD
						{
							OFFSET -10.777400 17.437393 -1.325900
							CHANNELS 3 Xrotation Yrotation Zrotation
							JOINT HairD1
							{
								OFFSET -3.290299 -11.051193 1.062200
								CHANNELS 3 Xrotation Yrotation Zrotation
								End Site
								{
									OFFSET 0.000000 11.579437 0.000000
								}
							}
						}
						JOINT HairB
						{
							OFFSET -10.777400 17.437393 1.467900
							CHANNELS 3 Xrotation Yrotation Zrotation
							JOINT HairB1
							{
								OFFSET -1.561200 -12.956299 3.590200
								CHANNELS 3 Xrotation Yrotation Zrotation
								End Site
								{
									OFFSET 0.000000 13.534866 0.000000
								}
							}
						}
						JOINT HairA
						{
							OFFSET 9.713100 17.437393 1.467900
							CHANNELS 3 Xrotation Yrotation Zrotation
							JOINT HairA1
							{
								OFFSET 1.561200 -12.956299 3.590200
								CHANNELS 3 Xrotation Yrotation Zrotation
								End Site
								{
									OFFSET 0.000000 13.534866 0.000000
								}
							}
						}
						JOINT HairC
						{
							OFFSET 9.713100 17.437393 -1.325900
							CHANNELS 3 Xrotation Yrotation Zrotation
							JOINT HairC1
							{
								OFFSET 3.290300 -11.051193 1.062200
								CHANNELS 3 Xrotation Yrotation Zrotation
								End Site
								{
									OFFSET 0.000000 11.579437 0.000000
								}
							}
						}
					}
				}
				JOINT LeftShoulder
				{
					OFFSET 5.101800 15.108002 -2.763700
					CHANNELS 3 Xrotation Yrotation Zrotation
					JOINT LeftArm
					{
						OFFSET 9.825497 2.506317 -1.597400
						CHANNELS 3 Xrotation Yrotation Zrotation
						JOINT LeftForeArm
						{
							OFFSET 21.966244 0.000000 0.000000
							CHANNELS 3 Xrotation Yrotation Zrotation
							JOINT LeftHand
							{
								OFFSET 33.879036 0.000000 0.000000
								CHANNELS 3 Xrotation Yrotation Zrotation
								JOINT LeftHandThumb1
								{
									OFFSET 6.715286 -2.359680 3.363841
									CHANNELS 3 Xrotation Yrotation Zrotation
									JOINT LeftHandThumb2
									{
										OFFSET 2.507072 -1.447464 1.447461
										CHANNELS 3 Xrotation Yrotation Zrotation
										JOINT LeftHandThumb3
										{
											OFFSET 2.898338 -1.673355 1.673357
											CHANNELS 3 Xrotation Yrotation Zrotation
											End Site
											{
												OFFSET -0.295959 3.727692 -0.131651
											}
										}
									}
								}
								JOINT LeftHandIndex1
								{
									OFFSET 14.190811 -0.254547 3.840278
									CHANNELS 3 Xrotation Yrotation Zrotation
									JOINT LeftHandIndex2
									{
										OFFSET 3.551727 0.000000 -0.000000
										CHANNELS 3 Xrotation Yrotation Zrotation
										JOINT LeftHandIndex3
										{
											OFFSET 2.894196 0.000000 0.000000
											CHANNELS 3 Xrotation Yrotation Zrotation
											End Site
											{
												OFFSET -1.000603 2.690872 0.366626
											}
										}
									}
								}
								JOINT LeftHandMiddle1
								{
									OFFSET 13.776489 0.000000 0.000000
									CHANNELS 3 Xrotation Yrotation Zrotation
									JOINT LeftHandMiddle2
									{
										OFFSET 3.438232 0.000000 0.000000
										CHANNELS 3 Xrotation Yrotation Zrotation
										JOINT LeftHandMiddle3
										{
											OFFSET 3.691551 0.000000 0.000000
											CHANNELS 3 Xrotation Yrotation Zrotation
											End Site
											{
												OFFSET -1.082298 3.499527 0.457670
											}
										}
									}
								}
								JOINT LeftHandRing1
								{
									OFFSET 13.966164 -0.268127 -3.067488
									CHANNELS 3 Xrotation Yrotation Zrotation
									JOINT LeftHandRing2
									{
										OFFSET 3.162567 0.000000 0.000000
										CHANNELS 3 Xrotation Yrotation Zrotation
										JOINT LeftHandRing3
										{
											OFFSET 3.324348 0.000000 0.000000
											CHANNELS 3 Xrotation Yrotation Zrotation
											End Site
											{
												OFFSET -0.861900 3.184998 0.405154
											}
										}
									}
								}
								JOINT LeftHandPinky1
								{
									OFFSET 13.131393 -0.168503 -5.746925
									CHANNELS 3 Xrotation Yrotation Zrotation
									JOINT LeftHandPinky2
									{
										OFFSET 2.849182 0.000000 0.000000
										CHANNELS 3 Xrotation Yrotation Zrotation
										JOINT LeftHandPinky3
										{
											OFFSET 2.805038 0.000000 0.000000
											CHANNELS 3 Xrotation Yrotation Zrotation
											End Site
											{
												OFFSET -0.882500 2.642609 0.325652
											}
										}
									}
								}
							}
							JOINT Left_Sleeve
							{
								OFFSET 6.592125 -0.646545 0.805568
								CHANNELS 3 Xrotation Yrotation Zrotation
								End Site
								{
									OFFSET -0.000179 20.275787 -0.000000
								}
							}
						}
					}
				}
				JOINT RightShoulder
				{
					OFFSET -5.731700 15.108002 -2.763700
					CHANNELS 3 Xrotation Yrotation Zrotation
					JOINT RightArm
					{
						OFFSET -9.825497 2.506317 -1.597400
						CHANNELS 3 Xrotation Yrotation Zrotation
						JOINT RightForeArm
						{
							OFFSET -21.966242 0.000000 0.000000
							CHANNELS 3 Xrotation Yrotation Zrotation
							JOINT RightHand
							{
								OFFSET -33.879032 0.000000 0.000000
								CHANNELS 3 Xrotation Yrotation Zrotation
								JOINT RightHandThumb1
								{
									OFFSET -6.715286 -2.359680 3.363841
									CHANNELS 3 Xrotation Yrotation Zrotation
									JOINT RightHandThumb2
									{
										OFFSET -2.507072 -1.447464 1.447461
										CHANNELS 3 Xrotation Yrotation Zrotation
										JOINT RightHandThumb3
										{
											OFFSET -2.898338 -1.673355 1.673357
											CHANNELS 3 Xrotation Yrotation Zrotation
											End Site
											{
												OFFSET 0.295959 3.727692 -0.131651
											}
										}
									}
								}
								JOINT RightHandIndex1
								{
									OFFSET -14.190811 -0.254547 3.840278
									CHANNELS 3 Xrotation Yrotation Zrotation
									JOINT RightHandIndex2
									{
										OFFSET -3.551727 0.000000 -0.000000
										CHANNELS 3 Xrotation Yrotation Zrotation
										JOINT RightHandIndex3
										{
											OFFSET -2.894196 0.000000 0.000000
											CHANNELS 3 Xrotation Yrotation Zrotation
											End Site
											{
												OFFSET 1.000603 2.690872 0.366626
											}
										}
									}
								}
								JOINT RightHandMiddle1
								{
									OFFSET -13.776489 0.000000 0.000000
									CHANNELS 3 Xrotation Yrotation Zrotation
									JOINT RightHandMiddle2
									{
										OFFSET -3.438232 0.000000 0.000000
										CHANNELS 3 Xrotation Yrotation Zrotation
										JOINT RightHandMiddle3
										{
											OFFSET -3.691551 0.000000 0.000000
											CHANNELS 3 Xrotation Yrotation Zrotation
											End Site
											{
												OFFSET 1.082298 3.499527 0.457670
											}
										}
									}
								}
								JOINT RightHandRing1
								{
									OFFSET -13.966164 -0.268127 -3.067488
									CHANNELS 3 Xrotation Yrotation Zrotation
									JOINT RightHandRing2
									{
										OFFSET -3.162567 0.000000 0.000000
										CHANNELS 3 Xrotation Yrotation Zrotation
										JOINT RightHandRing3
										{
											OFFSET -3.324348 0.000000 0.000000
											CHANNELS 3 Xrotation Yrotation Zrotation
											End Site
											{
												OFFSET 0.861900 3.184998 0.405154
											}
										}
									}
								}
								JOINT RightHandPinky1
								{
									OFFSET -13.131393 -0.168503 -5.746925
									CHANNELS 3 Xrotation Yrotation Zrotation
									JOINT RightHandPinky2
									{
										OFFSET -2.849182 0.000000 0.000000
										CHANNELS 3 Xrotation Yrotation Zrotation
										JOINT RightHandPinky3
										{
											OFFSET -2.805038 0.000000 0.000000
											CHANNELS 3 Xrotation Yrotation Zrotation
											End Site
											{
												OFFSET 0.882500 2.642609 0.325652
											}
										}
									}
								}
							}
							JOINT Right_Sleeve
							{
								OFFSET -6.592125 -0.646545 0.805568
								CHANNELS 3 Xrotation Yrotation Zrotation
								End Site
								{
									OFFSET 0.000179 20.275787 -0.000000
								}
							}
						}
					}
				}
				JOINT Bind_Right_JacketString
				{
					OFFSET -3.534800 11.969597 7.200700
					CHANNELS 3 Xrotation Yrotation Zrotation
					JOINT Bind_Right_JacketString1
					{
						OFFSET -0.319900 -6.102600 2.794100
						CHANNELS 3 Xrotation Yrotation Zrotation
						End Site
						{
							OFFSET 0.000000 6.719452 0.000000
						}
					}
				}
				JOINT Bind_Left_JacketString
				{
					OFFSET 2.904800 11.969597 7.200700
					CHANNELS 3 Xrotation Yrotation Zrotation
					JOINT Bind_Left_JacketString1
					{
						OFFSET 0.364800 -5.904503 3.186800
						CHANNELS 3 Xrotation Yrotation Zrotation
						End Site
						{
							OFFSET 0.000000 6.719513 0.000000
						}
					}
				}
				JOINT HairE
				{
					OFFSET 5.915200 17.612701 -11.592200
					CHANNELS 3 Xrotation Yrotation Zrotation
					JOINT HairE1
					{
						OFFSET 0.289200 -7.171898 -1.284500
						CHANNELS 3 Xrotation Yrotation Zrotation
						End Site
						{
							OFFSET 0.000000 7.291756 0.000000
						}
					}
				}
				JOINT HairF
				{
					OFFSET -0.864800 17.612701 -11.592200
					CHANNELS 3 Xrotation Yrotation Zrotation
					JOINT HairF1
					{
						OFFSET 0.000000 -14.087097 -2.127501
						CHANNELS 3 Xrotation Yrotation Zrotation
						End Site
						{
							OFFSET 0.000000 14.246841 0.000000
						}
					}
				}
				JOINT HairG
				{
					OFFSET -8.087700 17.612701 -11.592200
					CHANNELS 3 Xrotation Yrotation Zrotation
					JOINT HairG1
					{
						OFFSET -0.293600 -6.081398 -0.910100
						CHANNELS 3 Xrotation Yrotation Zrotation
						End Site
						{
							OFFSET 0.000000 6.156120 0.000000
						}
					}
				}
			}
		}
	}
	JOINT Pouch
	{
		OFFSET 0.000000 4.394501 10.847300
		CHANNELS 3 Xrotation Yrotation Zrotation
		End Site
		{
			OFFSET 0.000000 21.880577 0.000000
		}
	}
	JOINT Bag
	{
		OFFSET -13.229000 4.813004 -0.593300
		CHANNELS 3 Xrotation Yrotation Zrotation
		End Site
		{
			OFFSET 0.000000 21.880577 0.000000
		}
	}
	JOINT OccupyGuyFacialAnim_Joint
	{
		OFFSET 1.000000 -70.206398 -1.655000
		CHANNELS 3 Xrotation Yrotation Zrotation
		End Site
		{
			OFFSET 0.000000 21.880577 0.000000
		}
	}
}
MOTION
Frames: 4
Frame Time: 0.016667
0.037627 9.330219 -1.467506 -87.562492 -3.504487 -0.216180 -0.000000 0.000000 -0.000000 -21.858678 14.621724 -6.792172 26.597160 -7.093744 -9.730228 -3.063004 8.124370 6.659635 0.000000 0.000000 0.000001 0.000001 -0.000000 0.000002 -2.763124 -10.187788 0.740708 -1.413273 -5.139027 4.823589 11.992076 -4.227634 28.460261 -0.000001 -0.000001 0.000000 -0.000000 0.000000 0.000000 0.645069 1.461033 -1.859602 -2.712469 0.550123 0.069934 -2.709987 0.572753 0.085569 3.954682 -0.162520 0.200794 7.663465 -2.706721 7.904898 -0.000000 0.000000 -0.000001 -0.000000 0.000000 -0.000001 -0.000000 0.000000 -0.000001 -0.000000 0.000000 -0.000000 -0.000001 0.000000 -0.000000 -0.000000 0.000000 -0.000000 -0.000001 0.000000 -0.000000 -0.000000 0.000000 -0.000001 -0.000000 0.000000 -0.000001 1.279304 -13.498957 -1.883384 20.483966 -1.014536 -70.993464 0.000032 -137.491489 0.000028 -17.619168 18.840489 -43.362801 -7.220037 -16.942344 15.004582 7.558180 31.509541 -3.040783 0.000000 -0.000000 -0.000001 -0.024119 4.029258 2.883329 0.551245 2.482831 -25.032247 0.000001 0.000001 0.000002 -0.237393 3.164804 12.085525 0.825498 3.000280 -30.761089 -0.000001 0.000001 -0.000001 -0.227154 2.636222 15.396450 0.647037 2.678218 -27.159655 -0.000001 0.000001 -0.000001 -1.716318 2.384073 10.103026 0.425831 2.194585 -21.959570 0.000001 -0.000001 0.000001 0.000001 0.000001 -0.000001 0.515814 6.973514 0.064737 15.875311 6.901686 66.846515 0.000006 133.088012 -0.000006 -16.503240 -12.599696 49.917423 -19.372329 9.812744 -17.628158 16.805783 -33.149101 6.482071 -0.000001 0.000000 0.000002 -0.578710 -1.290239 19.415303 -0.000002 -0.000001 0.000003 -0.000001 0.000001 0.000002 0.900192 -7.884231 9.062701 0.294485 -1.631365 20.463684 -0.000000 -0.000001 0.000001 0.740069 -10.091155 4.911404 1.354390 -3.285250 44.799969 0.000000 0.000001 -0.000005 0.507050 -5.672359 8.465993 1.111093 -3.020976 40.379061 -0.000000 0.000003 -0.000003 -0.000002 0.000002 0.000000 -0.000000 0.000000 0.000000 -0.000000 0.000000 0.000000 -0.000000 0.000000 0.000000 -0.000000 0.000000 0.000000 -0.000000 0.000000 0.000000 -0.000000 0.000000 0.000000 -0.000000 0.000000 0.000000 -0.000000 0.000000 0.000000 -0.000000 0.000000 0.000000 -0.000000 0.000000 0.000000 -0.000000 0.000000 -0.000000 -0.000000 0.000000 -0.000000 -0.000000 0.000000 -0.000000 
0.037843 9.329090 -1.467102 -87.566871 -3.505259 -0.216845 0.000000 -0.000000 -0.000000 -21.857374 14.621084 -6.791064 26.600136 -7.094107 -9.730819 -3.058457 8.119030 6.650127 0.000000 0.000001 -0.000001 0.000001 0.000000 0.000001 -2.788551 -10.191153 0.735987 -1.357419 -5.139357 4.822969 11.968900 -4.237438 28.458926 0.000001 -0.000002 0.000001 -0.000000 0.000000 -0.000000 0.651876 1.470136 -1.855813 -2.713539 0.552117 0.068063 -2.711038 0.574704 0.083784 3.956771 -0.164480 0.200225 7.651823 -2.723800 7.913643 -0.000000 0.000000 0.000000 -0.000000 0.000000 0.000000 -0.000000 0.000000 -0.000000 -0.000000 0.000000 0.000000 -0.000000 0.000000 0.000000 -0.000000 0.000000 0.000000 -0.000000 0.000000 0.000000 -0.000000 0.000000 0.000000 -0.000000 0.000000 0.000000 1.279893 -13.506580 -1.882615 20.471337 -1.017574 -70.987140 -0.000012 -137.488211 0.000001 -17.622339 18.842190 -43.369526 -7.219496 -16.942878 15.007529 7.558176 31.509538 -3.040787 0.000000 0.000001 -0.000005 -0.024117 4.029258 2.883318 0.551032 2.482367 -25.027239 0.000001 0.000001 -0.000003 -0.237389 3.164804 12.085511 0.825495 3.000280 -30.761079 0.000002 0.000001 -0.000001 -0.227153 2.636227 15.396431 0.646789 2.677728 -27.154278 -0.000001 0.000001 0.000002 -1.716316 2.384078 10.103010 0.425638 2.194106 -21.954535 -0.000001 -0.000001 0.000003 0.000000 0.000001 0.000002 0.515558 6.970728 0.064774 15.874038 6.887362 66.861159 0.000035 133.090416 -0.000053 -16.498008 -12.596062 49.928290 -19.372326 9.812746 -17.628160 16.805781 -33.149107 6.482064 -0.000001 0.000000 0.000004 -0.578707 -1.290239 19.415304 0.000004 0.000000 -0.000002 0.000001 0.000001 -0.000003 0.900193 -7.884228 9.062699 0.294484 -1.631365 20.463684 -0.000002 -0.000001 -0.000001 0.740068 -10.091154 4.911401 1.354389 -3.285250 44.799972 -0.000002 0.000000 -0.000002 0.507054 -5.672358 8.465989 1.111095 -3.020978 40.379061 0.000000 -0.000001 0.000000 -0.000001 -0.000003 0.000001 0.000000 0.000000 0.000000 -0.000000 0.000000 -0.000000 0.000000 0.000000 0.000000 0.000000 0.000000 0.000000 0.000000 0.000000 0.000000 -0.000000 0.000000 -0.000000 0.000000 0.000000 0.000000 0.000000 0.000000 0.000000 0.000000 0.000000 0.000000 -0.000000 0.000000 -0.000000 0.000000 -0.000000 -0.000000 0.000000 -0.000000 -0.000000 0.000000 -0.000000 -0.000000 
0.038258 9.328079 -1.466438 -87.567110 -3.504508 -0.218424 -0.000000 0.000000 -0.000000 -21.860411 14.621306 -6.788818 26.603553 -7.095698 -9.731831 -3.054029 8.117454 6.644381 0.000000 0.000001 0.000000 -0.000001 -0.000000 -0.000000 -2.785717 -10.193024 0.737033 -1.364738 -5.141561 4.822289 11.974618 -4.239864 28.454633 0.000001 0.000002 0.000000 -0.000000 -0.000000 0.000000 0.654461 1.476203 -1.850644 -2.714828 0.553227 0.066521 -2.712320 0.575769 0.082299 3.958956 -0.166341 0.200117 7.643630 -2.740681 7.924390 -0.000000 0.000000 0.000000 -0.000000 0.000000 0.000000 -0.000000 0.000000 -0.000000 -0.000000 0.000000 0.000000 -0.000000 0.000000 -0.000000 -0.000000 0.000000 0.000000 -0.000000 0.000000 -0.000000 -0.000000 0.000000 0.000000 -0.000000 0.000000 0.000000 1.280327 -13.511005 -1.881050 20.463067 -1.020432 -70.982468 -0.000011 -137.485110 0.000002 -17.625467 18.842368 -43.375516 -7.217976 -16.944371 15.015886 7.558184 31.509544 -3.040781 0.000000 0.000001 -0.000003 -0.024126 4.029256 2.883327 0.550412 2.481049 -25.013024 0.000001 0.000001 -0.000002 -0.237397 3.164802 12.085523 0.825494 3.000275 -30.761061 -0.000000 0.000001 -0.000003 -0.227157 2.636221 15.396445 0.646074 2.676337 -27.138969 0.000001 -0.000001 0.000003 -1.716326 2.384069 10.103033 0.425098 2.192754 -21.940277 -0.000001 -0.000000 0.000001 -0.000001 -0.000002 0.000000 0.515704 6.970290 0.064802 15.871041 6.874135 66.875263 0.000007 133.093749 -0.000008 -16.491422 -12.597516 49.941756 -19.372327 9.812748 -17.628160 16.805781 -33.149104 6.482067 0.000001 -0.000001 -0.000000 -0.578709 -1.290238 19.415303 -0.000001 0.000000 0.000002 0.000002 0.000001 -0.000001 0.900190 -7.884230 9.062696 0.294483 -1.631367 20.463682 0.000002 0.000001 -0.000001 0.740069 -10.091155 4.911403 1.354387 -3.285248 44.799972 0.000001 -0.000001 0.000002 0.507051 -5.672359 8.465993 1.111092 -3.020976 40.379054 0.000003 0.000000 0.000001 0.000001 -0.000002 -0.000003 -0.000000 0.000000 0.000000 -0.000000 0.000000 -0.000000 -0.000000 0.000000 0.000000 -0.000000 0.000000 0.000000 -0.000000 0.000000 0.000000 -0.000000 0.000000 0.000000 -0.000000 0.000000 0.000000 -0.000000 0.000000 0.000000 -0.000000 0.000000 0.000000 -0.000000 0.000000 0.000000 -0.000000 0.000000 -0.000000 -0.000000 0.000000 -0.000000 -0.000000 0.000000 -0.000000 
0.038706 9.327145 -1.465530 -87.564938 -3.501872 -0.219984 0.000000 0.000000 0.000000 -21.866181 14.622419 -6.787009 26.608761 -7.096498 -9.732108 -3.051000 8.117819 6.643634 0.000001 0.000001 -0.000001 0.000001 0.000001 -0.000001 -2.796080 -10.195638 0.736204 -1.351626 -5.133618 4.821568 11.968739 -4.244872 28.452606 0.000001 -0.000002 -0.000002 0.000000 0.000001 -0.000000 0.654519 1.479690 -1.845134 -2.716214 0.553641 0.065173 -2.713708 0.576141 0.080983 3.961075 -0.168043 0.200409 7.637751 -2.756497 7.936150 -0.000000 -0.000001 -0.000000 -0.000000 -0.000001 -0.000000 -0.000000 -0.000001 -0.000000 -0.000000 -0.000001 -0.000000 -0.000001 -0.000000 0.000000 -0.000000 -0.000001 -0.000000 -0.000001 -0.000000 0.000000 -0.000000 -0.000001 -0.000000 -0.000000 -0.000001 -0.000000 1.280698 -13.512916 -1.878505 20.458056 -1.023371 -70.979415 0.000028 -137.481763 0.000026 -17.628595 18.841791 -43.381263 -7.215847 -16.946475 15.027594 7.558181 31.509541 -3.040784 0.000000 0.000001 0.000003 -0.024122 4.029258 2.883330 0.549555 2.479199 -24.993081 0.000002 0.000001 -0.000002 -0.237392 3.164802 12.085520 0.825495 3.000280 -30.761089 0.000001 0.000001 0.000001 -0.227156 2.636223 15.396435 0.645072 2.674382 -27.117485 0.000001 0.000000 -0.000002 -1.716319 2.384073 10.103025 0.424326 2.190854 -21.920263 -0.000001 0.000001 0.000001 -0.000001 -0.000003 -0.000000 0.516043 6.971515 0.064825 15.867211 6.862421 66.888869 0.000016 133.097164 -0.000036 -16.483943 -12.601874 49.956441 -19.372329 9.812745 -17.628162 16.805781 -33.149107 6.482061 0.000000 -0.000002 0.000007 -0.578712 -1.290238 19.415306 -0.000002 0.000001 0.000002 -0.000001 0.000000 0.000000 0.900188 -7.884231 9.062698 0.294483 -1.631366 20.463684 0.000002 -0.000000 -0.000001 0.740066 -10.091155 4.911403 1.354388 -3.285246 44.799972 -0.000000 0.000000 -0.000002 0.507049 -5.672360 8.465990 1.111094 -3.020977 40.379057 -0.000000 0.000003 0.000001 -0.000003 0.000001 0.000001 -0.000000 -0.000000 0.000000 -0.000000 -0.000000 0.000000 -0.000000 -0.000000 -0.000000 -0.000000 -0.000000 -0.000000 -0.000000 -0.000000 0.000000 -0.000000 -0.000000 0.000000 -0.000000 -0.000000 -0.000000 -0.000000 -0.000000 -0.000000 -0.000000 -0.000000 0.000000 -0.000000 -0.000000 0.000000 0.000000 0.000000 0.000000 0.000000 0.000000 0.000000 0.000000 0.000000 0.000000 
